<svg xmlns="http://www.w3.org/2000/svg" xmlns:xlink="http://www.w3.org/1999/xlink" width="1080" zoomAndPan="magnify" viewBox="0 0 810 809.999993" height="1080" preserveAspectRatio="xMidYMid meet" version="1.0"><defs><clipPath id="c79bd59230"><path d="M 21.960938 21.960938 L 787.710938 21.960938 L 787.710938 787.710938 L 21.960938 787.710938 Z M 21.960938 21.960938 " clip-rule="nonzero"/></clipPath></defs><g clip-path="url(#c79bd59230)"><path fill="#f9c23b" d="M 548.609375 404.308594 L 548.609375 593.882812 L 454.882812 593.882812 L 454.882812 489.902344 L 354.785156 489.902344 L 354.785156 593.882812 L 261.410156 593.882812 L 261.410156 404.308594 L 191.027344 404.308594 L 404.660156 215.789062 L 619 404.308594 Z M 405.015625 21.960938 C 193.503906 21.960938 21.960938 193.507812 21.960938 405.015625 C 21.960938 616.164062 193.503906 787.710938 405.015625 787.710938 C 616.523438 787.710938 787.710938 616.164062 787.710938 405.015625 C 787.710938 193.507812 616.523438 21.960938 405.015625 21.960938 " fill-opacity="1" fill-rule="nonzero"/></g></svg>