<svg xmlns="http://www.w3.org/2000/svg" xmlns:xlink="http://www.w3.org/1999/xlink" width="1080" zoomAndPan="magnify" viewBox="0 0 810 809.999993" height="1080" preserveAspectRatio="xMidYMid meet" version="1.0"><defs><clipPath id="4d76f40052"><path d="M 51.25 51.25 L 758.5 51.25 L 758.5 758.5 L 51.25 758.5 Z M 51.25 51.25 " clip-rule="nonzero"/></clipPath></defs><g clip-path="url(#4d76f40052)"><path fill="#010101" d="M 404.71875 115.015625 C 499.089844 115.015625 510.25 115.324219 547.59375 117.03125 C 581.996094 118.578125 600.746094 124.3125 613.296875 129.273438 C 629.722656 135.625 641.5 143.375 653.898438 155.769531 C 666.296875 168.167969 673.890625 179.945312 680.398438 196.371094 C 685.199219 208.769531 690.933594 227.519531 692.640625 262.074219 C 694.34375 299.421875 694.652344 310.578125 694.652344 404.949219 C 694.652344 499.324219 694.34375 510.480469 692.640625 547.828125 C 691.089844 582.226562 685.355469 600.980469 680.398438 613.53125 C 674.042969 629.957031 666.296875 641.734375 653.898438 654.132812 C 641.5 666.527344 629.722656 674.121094 613.296875 680.628906 C 600.902344 685.433594 582.152344 691.167969 547.59375 692.871094 C 510.25 694.578125 499.089844 694.886719 404.71875 694.886719 C 310.347656 694.886719 299.1875 694.578125 261.84375 692.871094 C 227.441406 691.320312 208.691406 685.589844 196.140625 680.628906 C 179.710938 674.277344 167.933594 666.527344 155.539062 654.132812 C 143.140625 641.734375 135.546875 629.957031 129.039062 613.53125 C 124.234375 601.132812 118.503906 582.382812 116.796875 547.828125 C 115.09375 510.480469 114.785156 499.324219 114.785156 404.949219 C 114.785156 310.578125 115.09375 299.421875 116.796875 262.074219 C 118.347656 227.671875 124.082031 208.921875 129.039062 196.371094 C 135.394531 179.945312 143.140625 168.167969 155.539062 155.769531 C 167.933594 143.375 179.710938 135.78125 196.140625 129.273438 C 208.535156 124.46875 227.285156 118.734375 261.84375 117.03125 C 299.1875 115.324219 310.347656 115.015625 404.71875 115.015625 M 404.71875 51.324219 C 308.640625 51.324219 296.710938 51.789062 258.898438 53.496094 C 221.242188 55.199219 195.519531 61.242188 173.050781 69.921875 C 149.804688 78.910156 130.125 90.996094 110.445312 110.675781 C 90.917969 130.355469 78.832031 150.039062 69.84375 173.28125 C 61.167969 195.75 55.121094 221.476562 53.417969 259.132812 C 51.714844 296.785156 51.25 308.875 51.25 404.796875 C 51.25 500.871094 51.714844 512.804688 53.417969 550.617188 C 55.121094 588.273438 61.167969 613.996094 69.84375 636.464844 C 78.832031 659.710938 90.917969 679.390625 110.597656 699.070312 C 130.28125 718.75 149.960938 730.835938 173.203125 739.824219 C 195.671875 748.503906 221.398438 754.546875 259.054688 756.25 C 296.710938 757.957031 308.796875 758.421875 404.875 758.421875 C 500.949219 758.421875 512.882812 757.957031 550.695312 756.25 C 588.347656 754.546875 614.074219 748.503906 636.542969 739.824219 C 659.789062 730.835938 679.46875 718.75 699.148438 699.070312 C 718.828125 679.390625 730.914062 659.710938 739.902344 636.464844 C 748.582031 613.996094 754.625 588.273438 756.328125 550.617188 C 758.035156 512.960938 758.5 500.871094 758.5 404.796875 C 758.5 308.71875 758.035156 296.785156 756.328125 258.976562 C 754.625 221.320312 748.582031 195.597656 739.902344 173.125 C 730.914062 149.882812 718.828125 130.203125 699.148438 110.523438 C 679.46875 90.839844 659.789062 78.753906 636.542969 69.765625 C 614.074219 61.089844 588.347656 55.046875 550.695312 53.339844 C 512.882812 51.789062 500.796875 51.324219 404.71875 51.324219 " fill-opacity="1" fill-rule="nonzero"/></g><path fill="#010101" d="M 404.71875 223.335938 C 304.457031 223.335938 223.257812 304.535156 223.257812 404.796875 C 223.257812 505.058594 304.613281 586.414062 404.875 586.414062 C 505.132812 586.414062 586.488281 505.210938 586.488281 404.796875 C 586.335938 304.535156 504.980469 223.335938 404.71875 223.335938 M 404.71875 522.722656 C 339.632812 522.722656 286.945312 470.035156 286.945312 404.949219 C 286.945312 339.867188 339.632812 287.179688 404.71875 287.179688 C 469.804688 287.179688 522.492188 339.867188 522.492188 404.949219 C 522.644531 469.878906 469.804688 522.722656 404.71875 522.722656 " fill-opacity="1" fill-rule="nonzero"/><path fill="#010101" d="M 635.921875 216.207031 C 635.921875 239.605469 616.863281 258.667969 593.464844 258.667969 C 570.0625 258.667969 551.003906 239.605469 551.003906 216.207031 C 551.003906 192.808594 570.0625 173.746094 593.464844 173.746094 C 616.863281 173.746094 635.921875 192.652344 635.921875 216.207031 " fill-opacity="1" fill-rule="nonzero"/></svg>