<svg xmlns="http://www.w3.org/2000/svg" xmlns:xlink="http://www.w3.org/1999/xlink" width="1080" zoomAndPan="magnify" viewBox="0 0 810 809.999993" height="1080" preserveAspectRatio="xMidYMid meet" version="1.0"><defs><clipPath id="c1f5e2146a"><path d="M 40.5 131.292969 L 769.5 131.292969 L 769.5 678.792969 L 40.5 678.792969 Z M 40.5 131.292969 " clip-rule="nonzero"/></clipPath></defs><g clip-path="url(#c1f5e2146a)"><path fill="#000000" d="M 746.71875 131.621094 L 63.28125 131.621094 C 50.707031 131.621094 40.5 141.828125 40.5 154.40625 L 40.5 655.679688 C 40.5 668.257812 50.707031 678.464844 63.28125 678.464844 L 746.71875 678.464844 C 759.292969 678.464844 769.5 668.257812 769.5 655.679688 L 769.5 154.40625 C 769.5 141.828125 759.292969 131.621094 746.71875 131.621094 Z M 405 463.964844 L 118.273438 177.191406 L 691.726562 177.191406 Z M 281.664062 405.042969 L 86.0625 600.675781 L 86.0625 209.410156 Z M 313.875 437.261719 L 388.894531 512.292969 C 393.335938 516.738281 399.167969 518.96875 405 518.96875 C 410.832031 518.96875 416.664062 516.738281 421.105469 512.292969 L 496.125 437.261719 L 691.726562 632.894531 L 118.273438 632.894531 Z M 528.335938 405.042969 L 723.9375 209.410156 L 723.9375 600.675781 Z M 528.335938 405.042969 " fill-opacity="1" fill-rule="nonzero"/></g></svg>