<svg xmlns="http://www.w3.org/2000/svg" xmlns:xlink="http://www.w3.org/1999/xlink" width="1080" zoomAndPan="magnify" viewBox="0 0 810 809.999993" height="1080" preserveAspectRatio="xMidYMid meet" version="1.0"><defs><clipPath id="17f3ece4c9"><path d="M 19.953125 21 L 789 21 L 789 790 L 19.953125 790 Z M 19.953125 21 " clip-rule="nonzero"/></clipPath></defs><path fill="#ffca28" d="M 589.6875 243.285156 L 712.757812 270.898438 C 713.359375 270.898438 714.558594 270.898438 715.160156 270.898438 C 720.5625 270.898438 725.363281 267.296875 726.566406 261.292969 C 727.765625 254.691406 724.164062 248.6875 717.5625 246.886719 L 594.488281 219.269531 C 587.886719 218.070312 581.882812 221.671875 580.082031 228.273438 C 579.480469 235.480469 583.082031 242.082031 589.6875 243.285156 Z M 589.6875 243.285156 " fill-opacity="1" fill-rule="nonzero"/><path fill="#ffca28" d="M 567.472656 286.507812 C 566.273438 293.113281 569.875 299.117188 576.476562 300.917969 L 699.550781 328.535156 C 700.148438 328.535156 701.351562 328.535156 701.953125 328.535156 C 707.355469 328.535156 712.15625 324.929688 713.359375 318.929688 C 714.558594 312.324219 710.957031 306.320312 704.351562 304.519531 L 581.28125 276.902344 C 575.277344 276.304688 568.671875 280.503906 567.472656 286.507812 Z M 567.472656 286.507812 " fill-opacity="1" fill-rule="nonzero"/><path fill="#ffca28" d="M 553.664062 344.140625 C 552.464844 350.746094 556.066406 356.75 562.671875 358.550781 L 685.742188 386.167969 C 686.34375 386.167969 687.542969 386.167969 688.144531 386.167969 C 693.546875 386.167969 698.347656 382.566406 699.550781 376.5625 C 700.75 369.957031 697.148438 363.953125 690.542969 362.152344 L 567.472656 334.535156 C 561.46875 333.9375 555.464844 338.140625 553.664062 344.140625 Z M 553.664062 344.140625 " fill-opacity="1" fill-rule="nonzero"/><path fill="#ffca28" d="M 540.457031 402.375 C 539.257812 408.980469 542.859375 414.984375 549.460938 416.785156 L 672.535156 444.402344 C 673.132812 444.402344 674.335938 444.402344 674.9375 444.402344 C 680.339844 444.402344 685.140625 440.800781 686.34375 434.796875 C 687.542969 428.191406 683.941406 422.1875 677.335938 420.386719 L 554.867188 393.371094 C 548.261719 391.570312 541.65625 395.773438 540.457031 402.375 Z M 540.457031 402.375 " fill-opacity="1" fill-rule="nonzero"/><path fill="#ffca28" d="M 546.460938 561.46875 L 628.707031 580.082031 C 629.308594 580.082031 630.507812 580.082031 631.109375 580.082031 C 636.511719 580.082031 641.316406 576.476562 642.515625 570.476562 C 643.71875 563.871094 640.117188 557.867188 633.511719 556.066406 L 511.039062 528.449219 L 532.050781 543.457031 C 539.257812 548.261719 543.457031 554.265625 546.460938 561.46875 Z M 546.460938 561.46875 " fill-opacity="1" fill-rule="nonzero"/><path fill="#ffca28" d="M 620.304688 614.300781 L 548.261719 598.089844 L 548.261719 622.707031 L 615.5 637.714844 C 616.101562 637.714844 617.300781 637.714844 617.902344 637.714844 C 623.304688 637.714844 628.109375 634.113281 629.308594 628.109375 C 631.109375 622.105469 626.90625 616.101562 620.304688 614.300781 Z M 620.304688 614.300781 " fill-opacity="1" fill-rule="nonzero"/><path fill="#ffca28" d="M 488.226562 487.625 L 641.917969 522.445312 C 642.515625 522.445312 643.71875 522.445312 644.316406 522.445312 C 649.722656 522.445312 654.523438 518.84375 655.722656 512.839844 C 656.925781 506.238281 653.324219 500.234375 646.71875 498.433594 L 487.625 462.410156 L 487.625 487.625 Z M 488.226562 487.625 " fill-opacity="1" fill-rule="nonzero"/><path fill="#ffca28" d="M 465.414062 154.433594 C 454.605469 152.03125 444.402344 153.230469 434.796875 156.234375 C 438.398438 162.835938 440.199219 170.640625 440.199219 178.445312 L 440.199219 179.644531 C 444.402344 177.84375 448.601562 176.644531 453.40625 176.644531 C 455.808594 176.644531 458.210938 176.644531 460.011719 177.246094 C 467.816406 179.046875 474.417969 183.847656 478.621094 190.453125 C 482.824219 197.054688 484.023438 204.859375 482.222656 212.664062 C 479.222656 225.875 467.214844 234.878906 453.40625 235.480469 L 463.613281 239.082031 C 470.214844 241.484375 476.21875 246.285156 480.421875 251.6875 C 492.429688 244.484375 502.035156 232.476562 505.035156 218.070312 C 508.039062 204.261719 505.636719 189.851562 498.433594 177.84375 C 491.828125 165.839844 479.820312 157.433594 465.414062 154.433594 Z M 465.414062 154.433594 " fill-opacity="1" fill-rule="nonzero"/><path fill="#ffca28" d="M 488.226562 293.113281 L 488.226562 318.925781 C 492.429688 321.328125 496.632812 324.929688 499.03125 329.132812 C 503.234375 335.738281 504.4375 343.542969 502.636719 351.347656 L 488.226562 414.382812 L 488.226562 438.996094 L 494.832031 440.199219 C 495.429688 440.199219 496.632812 440.199219 497.230469 440.199219 C 502.636719 440.199219 507.4375 436.597656 508.636719 431.191406 L 526.046875 356.148438 C 529.050781 342.339844 526.648438 327.933594 519.445312 315.925781 C 512.242188 305.121094 501.433594 296.714844 488.226562 293.113281 Z M 488.226562 293.113281 " fill-opacity="1" fill-rule="nonzero"/><g clip-path="url(#17f3ece4c9)"><path fill="#ffca28" d="M 35.5625 660.527344 L 383.765625 787.800781 C 386.765625 789.003906 389.167969 789.003906 392.171875 789.003906 C 396.972656 789.003906 401.777344 787.203125 405.980469 784.800781 C 411.980469 780.597656 416.183594 773.394531 416.183594 766.1875 L 416.183594 178.445312 C 416.183594 168.238281 410.179688 159.234375 400.574219 155.632812 L 97.398438 45.167969 L 485.824219 45.167969 L 485.824219 91.996094 L 548.261719 91.996094 L 548.261719 123.8125 L 361.550781 81.789062 C 359.152344 81.1875 356.75 81.1875 353.746094 81.1875 C 346.542969 81.1875 339.941406 82.988281 334.535156 86.59375 C 329.132812 90.195312 324.332031 94.996094 321.328125 101.601562 L 344.140625 110.003906 C 346.542969 107.003906 350.144531 105.203125 353.746094 105.203125 C 354.949219 105.203125 355.550781 105.203125 356.75 105.203125 L 755.382812 195.253906 C 761.988281 196.457031 766.1875 203.058594 764.386719 209.664062 L 646.117188 717.5625 L 548.261719 695.347656 C 548.261719 703.753906 544.660156 712.15625 539.257812 718.160156 L 640.714844 740.972656 C 642.515625 741.574219 644.316406 741.574219 646.117188 741.574219 C 656.925781 741.574219 667.132812 733.769531 669.53125 722.964844 L 787.800781 215.066406 C 790.203125 205.460938 788.402344 195.855469 783 188.050781 C 778.195312 179.644531 769.792969 174.242188 760.183594 171.84375 L 572.277344 129.816406 L 572.277344 92.59375 C 572.277344 79.386719 561.46875 68.582031 548.261719 68.582031 L 509.839844 68.582031 L 509.839844 45.167969 C 509.839844 31.960938 499.03125 21.152344 485.824219 21.152344 L 43.96875 21.152344 C 30.757812 21.152344 19.953125 31.960938 19.953125 45.167969 L 19.953125 47.570312 C 19.953125 48.769531 19.953125 49.96875 19.953125 51.171875 L 19.953125 638.3125 C 19.953125 648.519531 26.558594 657.527344 35.5625 660.527344 Z M 35.5625 660.527344 " fill-opacity="1" fill-rule="nonzero"/></g><path fill="#ffca28" d="M 452.207031 753.582031 C 454.605469 753.582031 457.007812 752.980469 458.808594 751.78125 C 462.410156 749.378906 464.210938 745.777344 464.210938 741.574219 L 464.210938 706.753906 L 512.242188 706.753906 C 518.84375 706.753906 524.246094 701.351562 524.246094 694.746094 L 524.246094 573.476562 C 524.246094 569.273438 522.445312 565.671875 518.84375 563.871094 L 464.210938 525.449219 L 464.210938 273.300781 C 464.210938 268.5 461.210938 263.695312 456.40625 261.894531 L 440.199219 255.890625 L 440.199219 749.378906 L 447.402344 752.382812 C 449.203125 753.582031 450.40625 753.582031 452.207031 753.582031 Z M 452.207031 753.582031 " fill-opacity="1" fill-rule="nonzero"/></svg>