<svg xmlns="http://www.w3.org/2000/svg" xmlns:xlink="http://www.w3.org/1999/xlink" width="1080" zoomAndPan="magnify" viewBox="0 0 810 809.999993" height="1080" preserveAspectRatio="xMidYMid meet" version="1.0"><defs><clipPath id="838c3ee845"><path d="M 16.257812 16.257812 L 794.007812 16.257812 L 794.007812 794.007812 L 16.257812 794.007812 Z M 16.257812 16.257812 " clip-rule="nonzero"/></clipPath><clipPath id="4cbe72e9e5"><path d="M 162.878906 229 L 525 229 L 525 642.472656 L 162.878906 642.472656 Z M 162.878906 229 " clip-rule="nonzero"/></clipPath><clipPath id="b2b3c57d9d"><path d="M 249 167.722656 L 430 167.722656 L 430 252 L 249 252 Z M 249 167.722656 " clip-rule="nonzero"/></clipPath><clipPath id="194ef1dbb1"><path d="M 368 296 L 647.378906 296 L 647.378906 575 L 368 575 Z M 368 296 " clip-rule="nonzero"/></clipPath></defs><g clip-path="url(#838c3ee845)"><path fill="#f9c23b" d="M 794.007812 405.132812 C 794.007812 411.496094 793.851562 417.855469 793.539062 424.214844 C 793.226562 430.570312 792.757812 436.914062 792.132812 443.25 C 791.511719 449.582031 790.730469 455.898438 789.796875 462.191406 C 788.863281 468.488281 787.777344 474.757812 786.535156 480.996094 C 785.292969 487.238281 783.898438 493.449219 782.351562 499.621094 C 780.804688 505.792969 779.109375 511.925781 777.261719 518.015625 C 775.414062 524.105469 773.417969 530.148438 771.273438 536.140625 C 769.132812 542.132812 766.839844 548.066406 764.40625 553.949219 C 761.96875 559.828125 759.390625 565.644531 756.671875 571.398438 C 753.949219 577.152344 751.089844 582.832031 748.089844 588.445312 C 745.089844 594.058594 741.953125 599.59375 738.679688 605.054688 C 735.410156 610.511719 732.003906 615.886719 728.46875 621.179688 C 724.933594 626.472656 721.269531 631.671875 717.480469 636.785156 C 713.6875 641.894531 709.773438 646.910156 705.738281 651.832031 C 701.699219 656.75 697.542969 661.570312 693.269531 666.285156 C 688.996094 671 684.609375 675.609375 680.109375 680.109375 C 675.609375 684.609375 671 688.996094 666.285156 693.269531 C 661.570312 697.542969 656.75 701.699219 651.832031 705.738281 C 646.910156 709.773438 641.894531 713.6875 636.785156 717.480469 C 631.671875 721.269531 626.472656 724.933594 621.179688 728.46875 C 615.886719 732.003906 610.511719 735.410156 605.054688 738.679688 C 599.59375 741.953125 594.058594 745.089844 588.445312 748.089844 C 582.832031 751.089844 577.152344 753.949219 571.398438 756.671875 C 565.644531 759.390625 559.828125 761.96875 553.949219 764.40625 C 548.066406 766.839844 542.132812 769.132812 536.140625 771.273438 C 530.148438 773.417969 524.105469 775.414062 518.015625 777.261719 C 511.925781 779.109375 505.792969 780.804688 499.621094 782.351562 C 493.449219 783.898438 487.238281 785.292969 480.996094 786.535156 C 474.753906 787.777344 468.488281 788.863281 462.191406 789.796875 C 455.894531 790.730469 449.582031 791.511719 443.25 792.132812 C 436.914062 792.757812 430.570312 793.226562 424.214844 793.539062 C 417.855469 793.851562 411.496094 794.007812 405.132812 794.007812 C 398.769531 794.007812 392.40625 793.851562 386.050781 793.539062 C 379.695312 793.226562 373.347656 792.757812 367.015625 792.132812 C 360.683594 791.511719 354.367188 790.730469 348.070312 789.796875 C 341.777344 788.863281 335.507812 787.777344 329.265625 786.535156 C 323.023438 785.292969 316.816406 783.898438 310.644531 782.351562 C 304.46875 780.804688 298.335938 779.109375 292.246094 777.261719 C 286.15625 775.414062 280.117188 773.417969 274.125 771.273438 C 268.132812 769.132812 262.195312 766.839844 256.316406 764.40625 C 250.4375 761.96875 244.621094 759.390625 238.867188 756.671875 C 233.113281 753.949219 227.429688 751.089844 221.816406 748.089844 C 216.203125 745.089844 210.667969 741.953125 205.210938 738.679688 C 199.75 735.410156 194.375 732.003906 189.085938 728.46875 C 183.792969 724.933594 178.589844 721.269531 173.480469 717.480469 C 168.367188 713.6875 163.351562 709.773438 158.433594 705.738281 C 153.511719 701.699219 148.695312 697.542969 143.980469 693.269531 C 139.265625 688.996094 134.65625 684.609375 130.15625 680.109375 C 125.65625 675.609375 121.269531 671 116.996094 666.285156 C 112.722656 661.570312 108.566406 656.75 104.527344 651.832031 C 100.488281 646.910156 96.574219 641.894531 92.785156 636.785156 C 88.992188 631.671875 85.328125 626.472656 81.792969 621.179688 C 78.257812 615.886719 74.855469 610.511719 71.582031 605.054688 C 68.3125 599.59375 65.175781 594.058594 62.175781 588.445312 C 59.175781 582.832031 56.3125 577.152344 53.59375 571.398438 C 50.871094 565.644531 48.292969 559.828125 45.859375 553.949219 C 43.421875 548.066406 41.132812 542.132812 38.988281 536.140625 C 36.84375 530.148438 34.847656 524.105469 33 518.015625 C 31.15625 511.925781 29.457031 505.792969 27.910156 499.621094 C 26.363281 493.449219 24.972656 487.238281 23.730469 480.996094 C 22.488281 474.753906 21.398438 468.488281 20.464844 462.191406 C 19.53125 455.898438 18.753906 449.582031 18.128906 443.25 C 17.503906 436.914062 17.039062 430.570312 16.726562 424.214844 C 16.414062 417.855469 16.257812 411.496094 16.257812 405.132812 C 16.257812 398.769531 16.414062 392.40625 16.726562 386.050781 C 17.039062 379.695312 17.503906 373.347656 18.128906 367.015625 C 18.753906 360.683594 19.53125 354.367188 20.464844 348.070312 C 21.398438 341.777344 22.488281 335.507812 23.730469 329.265625 C 24.972656 323.023438 26.363281 316.816406 27.910156 310.644531 C 29.457031 304.46875 31.15625 298.335938 33 292.246094 C 34.847656 286.15625 36.84375 280.117188 38.988281 274.125 C 41.132812 268.132812 43.421875 262.195312 45.859375 256.316406 C 48.292969 250.4375 50.871094 244.621094 53.59375 238.867188 C 56.3125 233.113281 59.175781 227.429688 62.175781 221.816406 C 65.175781 216.203125 68.3125 210.667969 71.582031 205.210938 C 74.855469 199.75 78.257812 194.375 81.792969 189.085938 C 85.328125 183.792969 88.992188 178.589844 92.785156 173.480469 C 96.574219 168.367188 100.488281 163.351562 104.527344 158.433594 C 108.566406 153.511719 112.722656 148.695312 116.996094 143.980469 C 121.269531 139.265625 125.65625 134.65625 130.15625 130.15625 C 134.65625 125.65625 139.265625 121.269531 143.980469 116.996094 C 148.695312 112.722656 153.511719 108.566406 158.433594 104.527344 C 163.351562 100.488281 168.367188 96.574219 173.480469 92.785156 C 178.589844 88.992188 183.792969 85.332031 189.085938 81.792969 C 194.375 78.257812 199.75 74.855469 205.210938 71.582031 C 210.667969 68.3125 216.203125 65.175781 221.816406 62.175781 C 227.429688 59.175781 233.113281 56.3125 238.867188 53.59375 C 244.621094 50.871094 250.4375 48.292969 256.316406 45.859375 C 262.195312 43.421875 268.132812 41.132812 274.125 38.988281 C 280.117188 36.84375 286.15625 34.847656 292.246094 33 C 298.335938 31.15625 304.46875 29.457031 310.644531 27.910156 C 316.816406 26.363281 323.023438 24.972656 329.265625 23.730469 C 335.507812 22.488281 341.777344 21.398438 348.070312 20.464844 C 354.367188 19.53125 360.683594 18.753906 367.015625 18.128906 C 373.347656 17.503906 379.695312 17.039062 386.050781 16.726562 C 392.40625 16.414062 398.769531 16.257812 405.132812 16.257812 C 411.496094 16.257812 417.855469 16.414062 424.214844 16.726562 C 430.570312 17.039062 436.914062 17.503906 443.25 18.128906 C 449.582031 18.753906 455.894531 19.53125 462.191406 20.464844 C 468.488281 21.398438 474.753906 22.488281 480.996094 23.730469 C 487.238281 24.972656 493.449219 26.363281 499.621094 27.910156 C 505.792969 29.457031 511.925781 31.15625 518.015625 33 C 524.105469 34.847656 530.148438 36.84375 536.140625 38.988281 C 542.132812 41.132812 548.066406 43.421875 553.949219 45.859375 C 559.828125 48.292969 565.644531 50.871094 571.398438 53.59375 C 577.152344 56.3125 582.832031 59.175781 588.445312 62.175781 C 594.058594 65.175781 599.59375 68.3125 605.054688 71.582031 C 610.511719 74.855469 615.886719 78.257812 621.179688 81.792969 C 626.472656 85.332031 631.671875 88.992188 636.785156 92.785156 C 641.894531 96.574219 646.910156 100.488281 651.832031 104.527344 C 656.75 108.566406 661.570312 112.722656 666.285156 116.996094 C 671 121.269531 675.609375 125.65625 680.109375 130.15625 C 684.609375 134.65625 688.996094 139.265625 693.269531 143.980469 C 697.542969 148.695312 701.699219 153.511719 705.738281 158.433594 C 709.773438 163.351562 713.6875 168.367188 717.480469 173.480469 C 721.269531 178.589844 724.933594 183.792969 728.46875 189.085938 C 732.003906 194.375 735.410156 199.75 738.679688 205.210938 C 741.953125 210.667969 745.089844 216.203125 748.089844 221.816406 C 751.089844 227.429688 753.949219 233.113281 756.671875 238.867188 C 759.390625 244.621094 761.96875 250.4375 764.40625 256.316406 C 766.839844 262.195312 769.132812 268.132812 771.273438 274.125 C 773.417969 280.117188 775.414062 286.15625 777.261719 292.246094 C 779.109375 298.335938 780.804688 304.46875 782.351562 310.644531 C 783.898438 316.816406 785.292969 323.023438 786.535156 329.265625 C 787.777344 335.507812 788.863281 341.777344 789.796875 348.070312 C 790.730469 354.367188 791.511719 360.683594 792.132812 367.015625 C 792.757812 373.347656 793.226562 379.695312 793.539062 386.050781 C 793.851562 392.40625 794.007812 398.769531 794.007812 405.132812 Z M 794.007812 405.132812 " fill-opacity="1" fill-rule="nonzero"/></g><path fill="#1f9de6" d="M 208.621094 244.136719 L 253.988281 244.136719 L 253.988281 255.027344 C 253.988281 265.136719 262.285156 273.433594 272.65625 273.433594 L 417.835938 273.433594 C 427.945312 273.433594 436.242188 265.136719 436.242188 255.027344 L 436.242188 244.136719 L 481.871094 244.136719 C 495.351562 244.136719 506.5 255.285156 506.5 268.765625 L 506.5 296.765625 L 490.167969 296.765625 C 475.90625 296.765625 464.5 308.433594 464.5 322.691406 L 464.5 349.132812 L 445.835938 330.207031 C 435.722656 320.355469 419.390625 320.355469 409.28125 330.207031 L 396.578125 343.171875 C 386.464844 353.28125 386.464844 369.613281 396.578125 379.464844 L 405.652344 388.539062 L 250.617188 388.539062 C 248.285156 388.539062 246.210938 390.613281 246.210938 392.949219 C 246.210938 395.539062 248.285156 397.613281 250.617188 397.613281 L 414.464844 397.613281 L 415.242188 398.132812 L 388.800781 398.132812 C 374.539062 398.132812 363.132812 409.796875 363.132812 424.058594 L 363.132812 442.203125 C 363.132812 456.203125 374.539062 467.871094 388.800781 467.871094 L 415.242188 467.871094 L 414.464844 468.390625 L 250.617188 468.390625 C 248.285156 468.390625 246.210938 470.464844 246.210938 473.054688 C 246.210938 475.390625 248.285156 477.460938 250.617188 477.460938 L 405.652344 477.460938 L 396.578125 486.535156 C 386.464844 496.386719 386.464844 512.722656 396.578125 522.832031 L 409.28125 535.792969 C 419.390625 545.644531 435.722656 545.644531 445.835938 535.792969 L 464.5 516.867188 L 464.5 543.570312 C 464.5 557.570312 475.90625 569.238281 490.167969 569.238281 L 506.5 569.238281 L 506.5 597.234375 C 506.5 610.71875 495.351562 621.863281 481.871094 621.863281 L 208.621094 621.863281 C 195.140625 621.863281 183.992188 610.71875 183.992188 597.234375 L 183.992188 268.765625 C 183.992188 255.285156 195.140625 244.136719 208.621094 244.136719 Z M 250.617188 308.691406 C 248.285156 308.691406 246.210938 310.765625 246.210938 313.097656 C 246.210938 315.691406 248.285156 317.503906 250.617188 317.503906 L 439.613281 317.503906 C 442.203125 317.503906 444.019531 315.691406 444.019531 313.097656 C 444.019531 310.765625 442.203125 308.691406 439.613281 308.691406 Z M 250.617188 548.496094 C 248.285156 548.496094 246.210938 550.3125 246.210938 552.90625 C 246.210938 555.496094 248.285156 557.3125 250.617188 557.3125 L 439.613281 557.3125 C 442.203125 557.3125 444.019531 555.496094 444.019531 552.90625 C 444.019531 550.3125 442.203125 548.496094 439.613281 548.496094 Z M 250.617188 548.496094 " fill-opacity="1" fill-rule="evenodd"/><path fill="#1f9de6" d="M 272.65625 264.359375 L 417.835938 264.359375 C 423.019531 264.359375 427.167969 260.210938 427.167969 255.027344 L 427.167969 217.695312 C 427.167969 212.507812 423.019531 208.101562 417.835938 208.101562 L 364.949219 208.101562 C 364.949219 197.214844 356.132812 188.398438 345.246094 188.398438 C 334.355469 188.398438 325.28125 197.214844 325.28125 208.101562 L 272.65625 208.101562 C 267.46875 208.101562 263.0625 212.507812 263.0625 217.695312 L 263.0625 255.027344 C 263.0625 260.210938 267.46875 264.359375 272.65625 264.359375 Z M 272.65625 264.359375 " fill-opacity="1" fill-rule="evenodd"/><path fill="#1f9de6" d="M 524.90625 355.875 C 528.535156 356.910156 532.164062 358.46875 535.535156 360.28125 L 559.125 336.691406 C 565.609375 330.207031 576.238281 330.207031 582.71875 336.691406 L 595.421875 349.652344 C 602.160156 356.132812 602.160156 366.761719 595.421875 373.246094 L 572.089844 396.578125 C 573.644531 399.945312 575.199219 403.578125 576.496094 407.207031 L 609.679688 407.207031 C 618.753906 407.207031 626.273438 414.722656 626.273438 424.058594 L 626.273438 442.203125 C 626.273438 451.277344 618.753906 458.796875 609.679688 458.796875 L 576.496094 458.796875 C 575.199219 462.425781 573.644531 466.054688 572.089844 469.425781 L 595.421875 492.757812 C 602.160156 499.238281 602.160156 509.867188 595.421875 516.609375 L 582.71875 529.3125 C 576.238281 535.792969 565.609375 535.792969 559.125 529.3125 L 535.535156 505.722656 C 532.164062 507.535156 528.535156 509.089844 524.90625 510.128906 L 524.90625 543.570312 C 524.90625 552.644531 517.386719 560.164062 508.3125 560.164062 L 490.167969 560.164062 C 480.832031 560.164062 473.316406 552.644531 473.316406 543.570312 L 473.316406 510.128906 C 469.683594 509.089844 466.316406 507.535156 462.945312 505.722656 L 439.351562 529.3125 C 432.871094 535.792969 422.242188 535.792969 415.761719 529.3125 L 402.796875 516.609375 C 396.316406 509.867188 396.316406 499.238281 402.796875 492.757812 L 426.390625 469.425781 C 424.574219 466.054688 423.28125 462.425781 421.984375 458.796875 L 388.800781 458.796875 C 379.464844 458.796875 371.949219 451.277344 371.949219 442.203125 L 371.949219 424.058594 C 371.949219 414.722656 379.464844 407.207031 388.800781 407.207031 L 421.984375 407.207031 C 423.28125 403.578125 424.574219 399.945312 426.390625 396.578125 L 402.796875 373.246094 C 396.316406 366.761719 396.316406 356.132812 402.796875 349.652344 L 415.761719 336.691406 C 422.242188 330.207031 432.871094 330.207031 439.351562 336.691406 L 462.945312 360.28125 C 466.316406 358.46875 469.683594 356.910156 473.316406 355.875 L 473.316406 322.691406 C 473.316406 313.359375 480.832031 305.839844 490.167969 305.839844 L 508.3125 305.839844 C 517.386719 305.839844 524.90625 313.359375 524.90625 322.691406 Z M 499.238281 382.578125 C 526.980469 382.578125 549.792969 405.132812 549.792969 433.132812 C 549.792969 460.871094 526.980469 483.425781 499.238281 483.425781 C 471.242188 483.425781 448.6875 460.871094 448.6875 433.132812 C 448.6875 405.132812 471.242188 382.578125 499.238281 382.578125 Z M 499.238281 382.578125 " fill-opacity="1" fill-rule="evenodd"/><g clip-path="url(#4cbe72e9e5)"><path fill="#1f9de6" d="M 190.144531 229.019531 C 283.519531 229.019531 395.621094 229.019531 488.996094 229.019531 C 504.039062 229.019531 516.242188 240.9375 516.242188 255.976562 C 516.242188 274.136719 516.527344 291.164062 516.808594 307.339844 C 517.09375 328.335938 534.40625 370.621094 516.242188 366.648438 C 468.277344 355.863281 415.488281 411.199219 415.488281 433.050781 C 415.488281 456.320312 483.605469 500.304688 516.242188 503.992188 C 527.878906 505.410156 516.242188 528.113281 516.242188 540.882812 C 516.242188 563.867188 516.242188 588.554688 516.242188 615.515625 C 516.242188 630.269531 504.039062 642.472656 488.996094 642.472656 L 190.144531 642.472656 C 175.101562 642.472656 162.898438 630.269531 162.898438 615.515625 L 162.898438 255.976562 C 162.898438 240.9375 175.101562 229.019531 190.144531 229.019531 Z M 190.144531 229.019531 " fill-opacity="1" fill-rule="evenodd"/></g><path fill="#2dbaf9" d="M 236.121094 294.570312 C 230.730469 294.570312 226.1875 299.109375 226.1875 304.5 C 226.1875 309.894531 230.730469 314.148438 236.121094 314.148438 L 443.019531 314.148438 C 448.410156 314.148438 452.667969 309.894531 452.667969 304.5 C 452.667969 299.109375 448.410156 294.570312 443.019531 294.570312 Z M 236.121094 294.570312 " fill-opacity="1" fill-rule="nonzero"/><path fill="#2dbaf9" d="M 236.121094 381.972656 C 230.730469 381.972656 226.1875 386.511719 226.1875 391.902344 C 226.1875 397.292969 230.730469 401.835938 236.121094 401.835938 L 424.570312 401.835938 C 429.964844 401.835938 434.222656 397.292969 434.222656 391.902344 C 434.222656 386.511719 429.964844 381.972656 424.570312 381.972656 Z M 236.121094 381.972656 " fill-opacity="1" fill-rule="nonzero"/><path fill="#2dbaf9" d="M 236.121094 469.65625 C 230.730469 469.65625 226.1875 473.914062 226.1875 479.304688 C 226.1875 484.695312 230.730469 489.238281 236.121094 489.238281 L 424.570312 489.238281 C 429.964844 489.238281 434.222656 484.695312 434.222656 479.304688 C 434.222656 473.914062 429.964844 469.65625 424.570312 469.65625 Z M 236.121094 469.65625 " fill-opacity="1" fill-rule="nonzero"/><path fill="#2dbaf9" d="M 236.121094 557.058594 C 230.730469 557.058594 226.1875 561.3125 226.1875 566.988281 C 226.1875 572.382812 230.730469 576.636719 236.121094 576.636719 L 443.019531 576.636719 C 448.410156 576.636719 452.667969 572.382812 452.667969 566.988281 C 452.667969 561.3125 448.410156 557.058594 443.019531 557.058594 Z M 236.121094 557.058594 " fill-opacity="1" fill-rule="nonzero"/><g clip-path="url(#b2b3c57d9d)"><path fill="#2dbaf9" d="M 259.960938 251.152344 L 419.179688 251.152344 C 424.855469 251.152344 429.394531 246.613281 429.394531 240.9375 L 429.394531 199.789062 C 429.394531 194.113281 424.855469 189.574219 419.179688 189.574219 L 361.28125 189.574219 C 361.28125 177.65625 351.632812 167.722656 339.429688 167.722656 C 327.507812 167.722656 317.859375 177.65625 317.859375 189.574219 L 259.960938 189.574219 C 254.285156 189.574219 249.746094 194.113281 249.746094 199.789062 L 249.746094 240.9375 C 249.746094 246.613281 254.285156 251.152344 259.960938 251.152344 Z M 259.960938 251.152344 " fill-opacity="1" fill-rule="evenodd"/></g><g clip-path="url(#194ef1dbb1)"><path fill="#2dbaf9" d="M 536.394531 351.039062 C 540.367188 352.457031 544.339844 354.160156 548.027344 355.863281 L 573.570312 330.324219 C 580.953125 323.230469 592.585938 323.230469 599.683594 330.324219 L 613.589844 344.230469 C 620.683594 351.324219 620.683594 362.957031 613.589844 370.050781 L 587.761719 395.875 C 589.75 399.566406 591.453125 403.539062 592.585938 407.511719 L 629.199219 407.511719 C 639.132812 407.511719 647.363281 415.738281 647.363281 425.671875 L 647.363281 445.535156 C 647.363281 455.75 639.132812 463.980469 629.199219 463.980469 L 592.585938 463.980469 C 591.453125 467.953125 589.75 471.640625 587.761719 475.332031 L 613.589844 501.15625 C 620.683594 508.25 620.683594 519.882812 613.589844 526.976562 L 599.683594 541.167969 C 592.585938 548.261719 580.953125 548.261719 573.570312 541.167969 L 548.027344 515.34375 C 544.339844 517.328125 540.367188 518.75 536.394531 520.167969 L 536.394531 556.492188 C 536.394531 566.707031 528.164062 574.933594 518.230469 574.933594 L 498.363281 574.933594 C 488.144531 574.933594 479.914062 566.707031 479.914062 556.492188 L 479.914062 520.167969 C 475.941406 518.75 471.96875 517.328125 468.277344 515.34375 L 442.734375 541.167969 C 435.640625 548.261719 424.003906 548.261719 416.910156 541.167969 L 402.71875 526.976562 C 395.621094 519.882812 395.621094 508.25 402.71875 501.15625 L 428.546875 475.332031 C 426.558594 471.640625 425.140625 467.953125 423.71875 463.980469 L 387.390625 463.980469 C 377.175781 463.980469 368.945312 455.75 368.945312 445.535156 L 368.945312 425.671875 C 368.945312 415.738281 377.175781 407.511719 387.390625 407.511719 L 423.71875 407.511719 C 424.855469 403.539062 426.558594 399.566406 428.546875 395.875 L 402.71875 370.050781 C 395.621094 362.957031 395.621094 351.324219 402.71875 344.230469 L 416.910156 330.324219 C 424.003906 323.230469 435.640625 323.230469 442.734375 330.324219 L 468.277344 355.863281 C 471.96875 354.160156 475.941406 352.457031 479.914062 351.039062 L 479.914062 314.71875 C 479.914062 304.785156 488.144531 296.554688 498.363281 296.554688 L 518.230469 296.554688 C 528.164062 296.554688 536.394531 304.785156 536.394531 314.71875 Z M 508.296875 380.269531 C 538.664062 380.269531 563.355469 405.238281 563.355469 435.605469 C 563.355469 466.25 538.664062 490.9375 508.296875 490.9375 C 477.644531 490.9375 452.953125 466.25 452.953125 435.605469 C 452.953125 405.238281 477.644531 380.269531 508.296875 380.269531 Z M 508.296875 380.269531 " fill-opacity="1" fill-rule="evenodd"/></g></svg>