<svg xmlns="http://www.w3.org/2000/svg" xmlns:xlink="http://www.w3.org/1999/xlink" width="1080" zoomAndPan="magnify" viewBox="0 0 810 809.999993" height="1080" preserveAspectRatio="xMidYMid meet" version="1.0"><defs><clipPath id="74ea2a149d"><path d="M 14.253906 28.503906 L 795.753906 28.503906 L 795.753906 810 L 14.253906 810 Z M 14.253906 28.503906 " clip-rule="nonzero"/></clipPath></defs><g clip-path="url(#74ea2a149d)"><path fill="#ffca28" d="M 405.003906 28.503906 C 189.195312 28.503906 14.253906 203.449219 14.253906 419.253906 C 14.253906 635.058594 189.195312 810.003906 405.003906 810.003906 C 620.808594 810.003906 795.753906 635.058594 795.753906 419.253906 C 795.753906 203.449219 620.808594 28.503906 405.003906 28.503906 Z M 405.003906 165.878906 C 461.507812 165.878906 507.316406 220.015625 507.316406 286.792969 C 507.316406 353.574219 461.507812 407.710938 405.003906 407.710938 C 348.496094 407.710938 302.6875 353.574219 302.6875 286.792969 C 302.6875 220.015625 348.496094 165.878906 405.003906 165.878906 Z M 578.183594 642.105469 L 231.820312 642.105469 C 214.453125 642.105469 200.375 628.023438 200.375 610.65625 C 200.375 529.394531 291.988281 463.519531 405.003906 463.519531 C 518.015625 463.519531 609.628906 529.394531 609.628906 610.65625 C 609.628906 628.023438 595.550781 642.105469 578.183594 642.105469 Z M 578.183594 642.105469 " fill-opacity="1" fill-rule="nonzero"/></g></svg>