<svg xmlns="http://www.w3.org/2000/svg" xmlns:xlink="http://www.w3.org/1999/xlink" width="1080" zoomAndPan="magnify" viewBox="0 0 810 809.999993" height="1080" preserveAspectRatio="xMidYMid meet" version="1.0"><defs><clipPath id="4f5381a49e"><path d="M 30 29.691406 L 781 29.691406 L 781 780.441406 L 30 780.441406 Z M 30 29.691406 " clip-rule="nonzero"/></clipPath></defs><path fill="#000000" d="M 585.285156 461.082031 C 583.828125 460.378906 529.121094 433.429688 519.40625 429.929688 C 515.433594 428.503906 511.183594 427.109375 506.660156 427.109375 C 499.277344 427.109375 493.070312 430.792969 488.234375 438.027344 C 482.773438 446.15625 466.226562 465.5 461.121094 471.277344 C 460.449219 472.046875 459.539062 472.957031 458.992188 472.957031 C 458.503906 472.957031 450.039062 469.46875 447.472656 468.351562 C 388.792969 442.851562 344.253906 381.519531 338.144531 371.171875 C 337.269531 369.691406 337.234375 369.015625 337.230469 369.015625 C 337.441406 368.230469 339.417969 366.246094 340.4375 365.226562 C 343.414062 362.277344 346.640625 358.390625 349.765625 354.625 C 351.246094 352.84375 352.722656 351.0625 354.179688 349.378906 C 358.710938 344.105469 360.730469 340.007812 363.066406 335.265625 L 364.292969 332.804688 C 370.003906 321.449219 365.125 311.875 363.546875 308.78125 C 362.253906 306.191406 339.160156 250.414062 336.703125 244.554688 C 330.796875 230.414062 322.992188 223.832031 312.148438 223.832031 C 311.140625 223.832031 312.148438 223.832031 307.929688 224.011719 C 302.789062 224.226562 274.8125 227.910156 262.441406 235.71875 C 249.320312 243.988281 227.125 270.371094 227.125 316.761719 C 227.125 358.507812 253.605469 397.933594 264.976562 412.921875 C 265.261719 413.300781 265.777344 414.070312 266.535156 415.175781 C 310.078125 478.796875 364.359375 525.949219 419.386719 547.945312 C 472.363281 569.113281 497.445312 571.558594 511.710938 571.558594 C 517.703125 571.558594 522.503906 571.089844 526.734375 570.671875 L 529.417969 570.421875 C 547.71875 568.792969 587.9375 547.945312 597.085938 522.507812 C 604.292969 502.476562 606.195312 480.585938 601.394531 472.640625 C 598.117188 467.238281 592.453125 464.523438 585.285156 461.082031 " fill-opacity="1" fill-rule="nonzero"/><g clip-path="url(#4f5381a49e)"><path fill="#000000" d="M 411.898438 685.363281 C 354.554688 685.363281 299.011719 668.792969 251.265625 637.445312 C 249.65625 636.390625 247.796875 635.855469 245.917969 635.855469 C 244.929688 635.855469 243.933594 636.003906 242.964844 636.3125 L 145.429688 667.328125 L 176.917969 574.390625 C 177.9375 571.382812 177.425781 568.066406 175.550781 565.5 C 139.191406 515.792969 119.972656 457.066406 119.972656 395.664062 C 119.972656 235.902344 250.933594 105.925781 411.898438 105.925781 C 572.847656 105.925781 703.789062 235.902344 703.789062 395.664062 C 703.789062 555.40625 572.851562 685.363281 411.898438 685.363281 Z M 411.898438 29.691406 C 208.679688 29.691406 43.347656 193.863281 43.347656 395.664062 C 43.347656 460.933594 60.800781 524.820312 93.875 580.734375 L 30.574219 767.558594 C 29.394531 771.046875 30.269531 774.894531 32.847656 777.519531 C 34.707031 779.414062 37.226562 780.441406 39.800781 780.441406 C 40.792969 780.441406 41.785156 780.292969 42.757812 779.980469 L 237.457031 718.082031 C 290.738281 746.558594 350.957031 761.59375 411.90625 761.59375 C 615.105469 761.59375 780.421875 597.4375 780.421875 395.664062 C 780.421875 193.863281 615.105469 29.691406 411.898438 29.691406 " fill-opacity="1" fill-rule="nonzero"/></g></svg>