<svg xmlns="http://www.w3.org/2000/svg" xmlns:xlink="http://www.w3.org/1999/xlink" width="1080" zoomAndPan="magnify" viewBox="0 0 810 809.999993" height="1080" preserveAspectRatio="xMidYMid meet" version="1.0"><defs><clipPath id="4a7a688ee7"><path d="M 22.390625 22.390625 L 787.390625 22.390625 L 787.390625 787.390625 L 22.390625 787.390625 Z M 22.390625 22.390625 " clip-rule="nonzero"/></clipPath></defs><g clip-path="url(#4a7a688ee7)"><path fill="#f9c23b" d="M 460.734375 405.652344 C 460.734375 444.414062 436.382812 475.269531 396.984375 475.269531 C 359.117188 475.269531 334.125 443.394531 334.125 405.144531 C 334.125 368.296875 358.988281 338.460938 395.964844 338.460938 C 435.234375 338.460938 460.734375 368.296875 460.734375 405.652344 Z M 787.390625 404.890625 C 787.390625 616.15625 616.15625 787.390625 404.890625 787.390625 C 193.621094 787.390625 22.390625 616.15625 22.390625 404.890625 C 22.390625 193.621094 193.621094 22.390625 404.890625 22.390625 C 616.15625 22.390625 787.390625 193.621094 787.390625 404.890625 Z M 630.5625 406.164062 C 630.5625 282.105469 535.960938 191.964844 407.949219 191.964844 C 279.300781 191.964844 179.214844 286.058594 179.214844 408.714844 C 179.214844 528.691406 274.964844 617.8125 401.320312 617.8125 C 439.1875 617.8125 488.527344 604.425781 517.855469 583.390625 L 497.453125 547.050781 C 469.53125 567.070312 430.773438 576.503906 401.191406 576.503906 C 299.703125 576.503906 222.054688 505.867188 222.054688 408.714844 C 222.054688 310.15625 304.164062 232.382812 407.820312 232.382812 C 518.363281 232.382812 587.597656 308.625 587.597656 407.695312 C 587.597656 458.820312 565.15625 494.265625 540.675781 494.265625 C 527.289062 494.265625 517.855469 486.234375 517.855469 467.363281 L 517.855469 293.582031 L 464.050781 293.582031 L 464.050781 325.964844 C 459.078125 315.511719 429.242188 288.609375 385.382812 288.609375 C 319.210938 288.609375 275.859375 341.777344 275.859375 407.566406 C 275.859375 477.179688 330.175781 523.972656 390.863281 523.972656 C 425.289062 523.972656 456.144531 509.695312 476.542969 479.730469 L 477.5625 489.675781 C 483.046875 517.597656 504.976562 530.09375 535.320312 530.09375 C 591.167969 530.09375 630.5625 481.261719 630.5625 406.164062 Z M 630.5625 406.164062 " fill-opacity="1" fill-rule="nonzero"/></g></svg>